:SAMPLES-PER-SECOND 30
:FULLY-SPECIFIED
:DEGREES
140
root  -65.0209 41.1363 -8.04938 -178.179 -88.1024 174.076
RightUpLeg  -5.00179 -8.16883 -1.20742
RightLeg  10.4819 -6.44262 4.47668
RightFoot  0.400218 0.693756 -6.7066
RightToes  4.07452e-010 0 -3.6325e-017
Spine  3.62581 0.0126674 11.0563
Spine1  9.26175 1.29586 -3.71537
HEad  -16.9719 2.07902 -3.68574
LeftShoulder1  8.81219 -12.0074 -49.5926
LeftArm  -10.2785 25.2421 -29.8517
LeftForeArm  25.661 -14.1962 -4.46066
LeftHand  -0.244104 0.0205437 5.32207
RightShoulder  5.71074 9.20151 38.8662
RightArm  4.9313 -6.73049 34.0173
RightForeArm  -1.97972 31.5621 7.04736
RightHand  -1.17863 3.04671 -16.3591
LeftUpLeg  -9.91971 13.8436 3.25644
LeftLeg  16.9226 2.47831 1.00364
LeftFoot  -6.519 0.267871 -5.63266
LeftToes  1.0186e-010 1.09309e-010 2.97394e-011
141
root  -65.6176 41.1885 -7.99304 170.304 -87.2104 -174.443
RightUpLeg  -3.77721 -7.95744 -0.800642
RightLeg  9.94789 -5.82874 4.53856
RightFoot  -0.0969525 0.672474 -6.82355
RightToes  4.07452e-010 0 -3.6325e-017
Spine  2.89535 0.103793 11.4246
Spine1  9.69921 1.40909 -4.05659
HEad  -16.3049 2.83839 -4.02698
LeftShoulder1  8.63042 -11.669 -49.6506
LeftArm  -12.6092 25.9452 -29.7969
LeftForeArm  24.4461 -14.7887 -3.94103
LeftHand  -0.244104 0.0205437 5.32207
RightShoulder  5.85142 9.33891 39.4533
RightArm  5.8817 -6.02935 33.4672
RightForeArm  -1.67631 29.4401 6.49166
RightHand  -1.17641 3.27823 -15.9086
LeftUpLeg  -7.78613 11.2307 3.94397
LeftLeg  12.1604 4.26624 0.394006
LeftFoot  -2.56261 0.202576 -2.4826
LeftToes  1.0186e-010 1.09309e-010 2.97394e-011
142
root  -66.1618 41.2551 -7.95738 168.013 -86.8772 -172.083
RightUpLeg  -2.65154 -7.74784 -0.710576
RightLeg  9.26232 -5.67033 4.50281
RightFoot  -0.471663 0.641392 -6.76043
RightToes  4.07452e-010 0 -3.6325e-017
Spine  2.37246 0.168935 10.708
Spine1  9.8872 1.25845 -3.47517
HEad  -15.9038 3.35168 -4.55943
LeftShoulder1  8.17326 -11.0302 -49.0769
LeftArm  -15.2932 25.8715 -29.78
LeftForeArm  23.8509 -15.0433 -3.42561
LeftHand  -0.244104 0.0205437 5.32207
RightShoulder  5.92048 9.36452 39.8777
RightArm  5.46226 -6.17381 32.5011
RightForeArm  -0.935747 27.0359 5.86979
RightHand  -1.15046 3.36402 -15.4218
LeftUpLeg  -6.53982 8.88602 4.17749
LeftLeg  10.5815 6.27573 0.0390089
LeftFoot  0.129966 -0.0309782 0.362676
LeftToes  1.0186e-010 1.09309e-010 2.97394e-011
143
root  -66.6485 41.3394 -7.9539 171.872 -87.1646 -175.95
RightUpLeg  -1.60307 -7.68831 -1.02901
RightLeg  8.79136 -5.86982 4.32918
RightFoot  -0.835668 0.587357 -6.43767
RightToes  4.07452e-010 0 -3.6325e-017
Spine  2.29763 0.33363 9.38099
Spine1  9.65347 1.22679 -2.73575
HEad  -15.7024 3.14741 -4.53054
LeftShoulder1  7.43853 -10.242 -47.1966
LeftArm  -17.5415 25.0867 -29.4777
LeftForeArm  23.2701 -14.7034 -3.00236
LeftHand  -0.244104 0.0205437 5.32207
RightShoulder  5.8569 9.21368 39.9202
RightArm  3.06686 -7.6774 31.1901
RightForeArm  -0.339014 24.7522 5.30965
RightHand  -1.13642 3.44942 -15.0978
LeftUpLeg  -5.36178 8.11463 4.00978
LeftLeg  9.88512 6.9048 -0.144111
LeftFoot  0.461205 -0.111742 1.0557
LeftToes  1.0186e-010 1.09309e-010 2.97394e-011
144
root  -67.0998 41.4414 -7.95475 -179.931 -87.6603 175.961
RightUpLeg  -0.737926 -7.75966 -1.53414
RightLeg  8.3708 -6.08713 4.19592
RightFoot  -0.970437 0.539227 -6.00512
RightToes  4.07452e-010 0 -3.6325e-017
Spine  2.21913 0.591151 8.2044
Spine1  9.16656 1.4156 -2.43788
HEad  -15.3225 2.52098 -3.88814
LeftShoulder1  6.58955 -9.39107 -44.4834
LeftArm  -18.8905 24.0179 -28.0556
LeftForeArm  22.0756 -14.123 -2.67588
LeftHand  -0.244104 0.0205437 5.32207
RightShoulder  5.61262 8.89694 39.1642
RightArm  -0.61745 -9.96907 29.45
RightForeArm  0.074804 22.0387 4.94812
RightHand  -1.11165 3.50009 -14.6956
LeftUpLeg  -3.9532 7.33696 3.96336
LeftLeg  8.30735 7.41749 -0.864218
LeftFoot  0.186554 -0.038101 0.370684
LeftToes  1.0186e-010 1.09309e-010 2.97394e-011
